<mxfile host="app.diagrams.net" modified="2023-01-02T06:07:48.942Z" agent="5.0 (Windows NT 10.0; Win64; x64) AppleWebKit/537.36 (KHTML, like Gecko) Chrome/108.0.0.0 Safari/537.36" version="20.7.4" etag="lnQGVvsuS8AgbzoUTyzR" type="github">
  <diagram id="5S1QGdOrNzxuNydwF2vS" name="Page-1">
    <mxGraphModel dx="1035" dy="522" grid="1" gridSize="10" guides="1" tooltips="1" connect="1" arrows="1" fold="1" page="1" pageScale="1" pageWidth="850" pageHeight="1100" math="0" shadow="0">
      <root>
        <mxCell id="0" />
        <mxCell id="1" parent="0" />
        <mxCell id="WlTlBZQSWbdqTwPQ83UT-48" value="The Author" style="swimlane;whiteSpace=wrap;html=1;" vertex="1" parent="1">
          <mxGeometry x="5" y="40" width="280" height="1040" as="geometry">
            <mxRectangle x="20" y="40" width="100" height="30" as="alternateBounds" />
          </mxGeometry>
        </mxCell>
        <mxCell id="WlTlBZQSWbdqTwPQ83UT-49" style="edgeStyle=orthogonalEdgeStyle;rounded=0;orthogonalLoop=1;jettySize=auto;html=1;exitX=0.5;exitY=1;exitDx=0;exitDy=0;exitPerimeter=0;entryX=0.5;entryY=0;entryDx=0;entryDy=0;" edge="1" parent="WlTlBZQSWbdqTwPQ83UT-48" source="WlTlBZQSWbdqTwPQ83UT-50" target="WlTlBZQSWbdqTwPQ83UT-52">
          <mxGeometry relative="1" as="geometry" />
        </mxCell>
        <mxCell id="WlTlBZQSWbdqTwPQ83UT-50" value="Start" style="strokeWidth=2;html=1;shape=mxgraph.flowchart.start_2;whiteSpace=wrap;" vertex="1" parent="WlTlBZQSWbdqTwPQ83UT-48">
          <mxGeometry x="115" y="40" width="50" height="50" as="geometry" />
        </mxCell>
        <mxCell id="WlTlBZQSWbdqTwPQ83UT-51" style="edgeStyle=orthogonalEdgeStyle;rounded=0;orthogonalLoop=1;jettySize=auto;html=1;exitX=0.5;exitY=1;exitDx=0;exitDy=0;entryX=0.5;entryY=0;entryDx=0;entryDy=0;" edge="1" parent="WlTlBZQSWbdqTwPQ83UT-48" source="WlTlBZQSWbdqTwPQ83UT-52" target="WlTlBZQSWbdqTwPQ83UT-54">
          <mxGeometry relative="1" as="geometry" />
        </mxCell>
        <mxCell id="WlTlBZQSWbdqTwPQ83UT-52" value="The author open the platform" style="rounded=1;whiteSpace=wrap;html=1;absoluteArcSize=1;arcSize=14;strokeWidth=2;" vertex="1" parent="WlTlBZQSWbdqTwPQ83UT-48">
          <mxGeometry x="80" y="120" width="120" height="50" as="geometry" />
        </mxCell>
        <mxCell id="WlTlBZQSWbdqTwPQ83UT-53" style="edgeStyle=orthogonalEdgeStyle;rounded=0;orthogonalLoop=1;jettySize=auto;html=1;exitX=0.5;exitY=1;exitDx=0;exitDy=0;entryX=0.5;entryY=0;entryDx=0;entryDy=0;" edge="1" parent="WlTlBZQSWbdqTwPQ83UT-48" source="WlTlBZQSWbdqTwPQ83UT-54" target="WlTlBZQSWbdqTwPQ83UT-56">
          <mxGeometry relative="1" as="geometry" />
        </mxCell>
        <mxCell id="WlTlBZQSWbdqTwPQ83UT-54" value="Login with Connect to Wallet (Metamask)" style="rounded=1;whiteSpace=wrap;html=1;absoluteArcSize=1;arcSize=14;strokeWidth=2;" vertex="1" parent="WlTlBZQSWbdqTwPQ83UT-48">
          <mxGeometry x="80" y="200" width="120" height="50" as="geometry" />
        </mxCell>
        <mxCell id="WlTlBZQSWbdqTwPQ83UT-55" style="edgeStyle=orthogonalEdgeStyle;rounded=0;orthogonalLoop=1;jettySize=auto;html=1;exitX=0.5;exitY=1;exitDx=0;exitDy=0;entryX=0.5;entryY=0;entryDx=0;entryDy=0;" edge="1" parent="WlTlBZQSWbdqTwPQ83UT-48" source="WlTlBZQSWbdqTwPQ83UT-56" target="WlTlBZQSWbdqTwPQ83UT-58">
          <mxGeometry relative="1" as="geometry" />
        </mxCell>
        <mxCell id="WlTlBZQSWbdqTwPQ83UT-56" value="Create an article" style="rounded=1;whiteSpace=wrap;html=1;absoluteArcSize=1;arcSize=14;strokeWidth=2;" vertex="1" parent="WlTlBZQSWbdqTwPQ83UT-48">
          <mxGeometry x="80" y="280" width="120" height="50" as="geometry" />
        </mxCell>
        <mxCell id="WlTlBZQSWbdqTwPQ83UT-57" style="edgeStyle=orthogonalEdgeStyle;rounded=0;orthogonalLoop=1;jettySize=auto;html=1;exitX=0.5;exitY=1;exitDx=0;exitDy=0;entryX=0.5;entryY=0;entryDx=0;entryDy=0;" edge="1" parent="WlTlBZQSWbdqTwPQ83UT-48" source="WlTlBZQSWbdqTwPQ83UT-58" target="WlTlBZQSWbdqTwPQ83UT-59">
          <mxGeometry relative="1" as="geometry" />
        </mxCell>
        <mxCell id="WlTlBZQSWbdqTwPQ83UT-58" value="Publish the article" style="rounded=1;whiteSpace=wrap;html=1;absoluteArcSize=1;arcSize=14;strokeWidth=2;" vertex="1" parent="WlTlBZQSWbdqTwPQ83UT-48">
          <mxGeometry x="80" y="360" width="120" height="50" as="geometry" />
        </mxCell>
        <mxCell id="WlTlBZQSWbdqTwPQ83UT-59" value="Sign the article" style="rounded=1;whiteSpace=wrap;html=1;absoluteArcSize=1;arcSize=14;strokeWidth=2;" vertex="1" parent="WlTlBZQSWbdqTwPQ83UT-48">
          <mxGeometry x="80" y="440" width="120" height="50" as="geometry" />
        </mxCell>
        <mxCell id="WlTlBZQSWbdqTwPQ83UT-60" style="edgeStyle=orthogonalEdgeStyle;rounded=0;orthogonalLoop=1;jettySize=auto;html=1;exitX=0.5;exitY=1;exitDx=0;exitDy=0;entryX=0.5;entryY=0;entryDx=0;entryDy=0;entryPerimeter=0;fontSize=9;" edge="1" parent="WlTlBZQSWbdqTwPQ83UT-48" source="WlTlBZQSWbdqTwPQ83UT-61" target="WlTlBZQSWbdqTwPQ83UT-62">
          <mxGeometry relative="1" as="geometry" />
        </mxCell>
        <mxCell id="WlTlBZQSWbdqTwPQ83UT-61" value="View the article entry" style="rounded=1;whiteSpace=wrap;html=1;absoluteArcSize=1;arcSize=14;strokeWidth=2;" vertex="1" parent="WlTlBZQSWbdqTwPQ83UT-48">
          <mxGeometry x="80" y="840" width="120" height="50" as="geometry" />
        </mxCell>
        <mxCell id="WlTlBZQSWbdqTwPQ83UT-62" value="End" style="strokeWidth=2;html=1;shape=mxgraph.flowchart.start_2;whiteSpace=wrap;" vertex="1" parent="WlTlBZQSWbdqTwPQ83UT-48">
          <mxGeometry x="115" y="920" width="50" height="50" as="geometry" />
        </mxCell>
        <mxCell id="WlTlBZQSWbdqTwPQ83UT-63" value="MirrorXYZ System" style="swimlane;whiteSpace=wrap;html=1;" vertex="1" parent="1">
          <mxGeometry x="285" y="40" width="280" height="1040" as="geometry" />
        </mxCell>
        <mxCell id="WlTlBZQSWbdqTwPQ83UT-64" style="edgeStyle=orthogonalEdgeStyle;rounded=0;orthogonalLoop=1;jettySize=auto;html=1;exitX=1;exitY=0;exitDx=0;exitDy=0;entryX=0.5;entryY=1;entryDx=0;entryDy=0;entryPerimeter=0;dashed=1;" edge="1" parent="WlTlBZQSWbdqTwPQ83UT-63" source="WlTlBZQSWbdqTwPQ83UT-66" target="WlTlBZQSWbdqTwPQ83UT-67">
          <mxGeometry relative="1" as="geometry" />
        </mxCell>
        <mxCell id="WlTlBZQSWbdqTwPQ83UT-65" style="edgeStyle=orthogonalEdgeStyle;rounded=0;orthogonalLoop=1;jettySize=auto;html=1;exitX=0.5;exitY=1;exitDx=0;exitDy=0;entryX=0.5;entryY=0;entryDx=0;entryDy=0;" edge="1" parent="WlTlBZQSWbdqTwPQ83UT-63" source="WlTlBZQSWbdqTwPQ83UT-66" target="WlTlBZQSWbdqTwPQ83UT-70">
          <mxGeometry relative="1" as="geometry" />
        </mxCell>
        <mxCell id="WlTlBZQSWbdqTwPQ83UT-66" value="Store the article" style="rounded=1;whiteSpace=wrap;html=1;absoluteArcSize=1;arcSize=14;strokeWidth=2;" vertex="1" parent="WlTlBZQSWbdqTwPQ83UT-63">
          <mxGeometry x="40" y="440" width="120" height="50" as="geometry" />
        </mxCell>
        <mxCell id="WlTlBZQSWbdqTwPQ83UT-67" value="" style="strokeWidth=2;html=1;shape=mxgraph.flowchart.database;whiteSpace=wrap;" vertex="1" parent="WlTlBZQSWbdqTwPQ83UT-63">
          <mxGeometry x="140" y="360" width="50" height="50" as="geometry" />
        </mxCell>
        <mxCell id="WlTlBZQSWbdqTwPQ83UT-68" value="RDBMS" style="text;html=1;align=center;verticalAlign=middle;resizable=0;points=[];autosize=1;strokeColor=none;fillColor=none;" vertex="1" parent="WlTlBZQSWbdqTwPQ83UT-63">
          <mxGeometry x="130" y="330" width="70" height="30" as="geometry" />
        </mxCell>
        <mxCell id="WlTlBZQSWbdqTwPQ83UT-69" style="edgeStyle=orthogonalEdgeStyle;rounded=0;orthogonalLoop=1;jettySize=auto;html=1;exitX=0.5;exitY=1;exitDx=0;exitDy=0;entryX=0.5;entryY=0;entryDx=0;entryDy=0;" edge="1" parent="WlTlBZQSWbdqTwPQ83UT-63" source="WlTlBZQSWbdqTwPQ83UT-70" target="WlTlBZQSWbdqTwPQ83UT-71">
          <mxGeometry relative="1" as="geometry" />
        </mxCell>
        <mxCell id="WlTlBZQSWbdqTwPQ83UT-70" value="Generate the article entry (Json Data)" style="rounded=1;whiteSpace=wrap;html=1;absoluteArcSize=1;arcSize=14;strokeWidth=2;" vertex="1" parent="WlTlBZQSWbdqTwPQ83UT-63">
          <mxGeometry x="40" y="520" width="120" height="50" as="geometry" />
        </mxCell>
        <mxCell id="WlTlBZQSWbdqTwPQ83UT-71" value="Pay around 0.00005 AR to store the data in Blockchain" style="rounded=1;whiteSpace=wrap;html=1;absoluteArcSize=1;arcSize=14;strokeWidth=2;" vertex="1" parent="WlTlBZQSWbdqTwPQ83UT-63">
          <mxGeometry x="40" y="600" width="120" height="50" as="geometry" />
        </mxCell>
        <mxCell id="WlTlBZQSWbdqTwPQ83UT-72" value="&lt;font style=&quot;font-size: 9px;&quot;&gt;Subsidized by the system&lt;/font&gt;" style="strokeWidth=2;html=1;shape=mxgraph.flowchart.annotation_2;align=left;labelPosition=right;pointerEvents=1;rotation=0;" vertex="1" parent="WlTlBZQSWbdqTwPQ83UT-63">
          <mxGeometry x="159.5" y="575" width="15" height="60" as="geometry" />
        </mxCell>
        <mxCell id="WlTlBZQSWbdqTwPQ83UT-73" style="edgeStyle=orthogonalEdgeStyle;rounded=0;orthogonalLoop=1;jettySize=auto;html=1;exitX=0.5;exitY=1;exitDx=0;exitDy=0;entryX=0.5;entryY=0;entryDx=0;entryDy=0;fontSize=9;" edge="1" parent="WlTlBZQSWbdqTwPQ83UT-63" source="WlTlBZQSWbdqTwPQ83UT-74" target="WlTlBZQSWbdqTwPQ83UT-75">
          <mxGeometry relative="1" as="geometry" />
        </mxCell>
        <mxCell id="WlTlBZQSWbdqTwPQ83UT-74" value="Retrieve the hash transaction" style="rounded=1;whiteSpace=wrap;html=1;absoluteArcSize=1;arcSize=14;strokeWidth=2;" vertex="1" parent="WlTlBZQSWbdqTwPQ83UT-63">
          <mxGeometry x="40" y="760" width="120" height="50" as="geometry" />
        </mxCell>
        <mxCell id="WlTlBZQSWbdqTwPQ83UT-75" value="Post the hash transaction to the article" style="rounded=1;whiteSpace=wrap;html=1;absoluteArcSize=1;arcSize=14;strokeWidth=2;" vertex="1" parent="WlTlBZQSWbdqTwPQ83UT-63">
          <mxGeometry x="40" y="840" width="120" height="50" as="geometry" />
        </mxCell>
        <mxCell id="WlTlBZQSWbdqTwPQ83UT-76" value="Blockchain System" style="swimlane;whiteSpace=wrap;html=1;" vertex="1" parent="1">
          <mxGeometry x="565" y="40" width="280" height="1040" as="geometry" />
        </mxCell>
        <mxCell id="WlTlBZQSWbdqTwPQ83UT-77" style="edgeStyle=orthogonalEdgeStyle;rounded=0;orthogonalLoop=1;jettySize=auto;html=1;exitX=0.5;exitY=0;exitDx=0;exitDy=0;entryX=0.56;entryY=0.98;entryDx=0;entryDy=0;entryPerimeter=0;dashed=1;" edge="1" parent="WlTlBZQSWbdqTwPQ83UT-76" source="WlTlBZQSWbdqTwPQ83UT-79" target="WlTlBZQSWbdqTwPQ83UT-80">
          <mxGeometry relative="1" as="geometry" />
        </mxCell>
        <mxCell id="WlTlBZQSWbdqTwPQ83UT-78" style="edgeStyle=orthogonalEdgeStyle;rounded=0;orthogonalLoop=1;jettySize=auto;html=1;exitX=0.5;exitY=1;exitDx=0;exitDy=0;entryX=0.5;entryY=0;entryDx=0;entryDy=0;fontSize=8;" edge="1" parent="WlTlBZQSWbdqTwPQ83UT-76" source="WlTlBZQSWbdqTwPQ83UT-79" target="WlTlBZQSWbdqTwPQ83UT-82">
          <mxGeometry relative="1" as="geometry" />
        </mxCell>
        <mxCell id="WlTlBZQSWbdqTwPQ83UT-79" value="Store the data on Blokchain" style="rounded=1;whiteSpace=wrap;html=1;absoluteArcSize=1;arcSize=14;strokeWidth=2;" vertex="1" parent="WlTlBZQSWbdqTwPQ83UT-76">
          <mxGeometry x="40" y="680" width="120" height="50" as="geometry" />
        </mxCell>
        <mxCell id="WlTlBZQSWbdqTwPQ83UT-80" value="" style="aspect=fixed;html=1;points=[];align=center;image;fontSize=12;image=img/lib/azure2/blockchain/Azure_Blockchain_Service.svg;" vertex="1" parent="WlTlBZQSWbdqTwPQ83UT-76">
          <mxGeometry x="75" y="600" width="50" height="50" as="geometry" />
        </mxCell>
        <mxCell id="WlTlBZQSWbdqTwPQ83UT-81" value="&lt;font style=&quot;font-size: 9px;&quot;&gt;&lt;b&gt;Arweave Blockchain&lt;/b&gt;&lt;/font&gt;" style="text;html=1;align=center;verticalAlign=middle;resizable=0;points=[];autosize=1;strokeColor=none;fillColor=none;" vertex="1" parent="WlTlBZQSWbdqTwPQ83UT-76">
          <mxGeometry x="45" y="570" width="110" height="30" as="geometry" />
        </mxCell>
        <mxCell id="WlTlBZQSWbdqTwPQ83UT-82" value="Generate a hash transaction" style="rounded=1;whiteSpace=wrap;html=1;absoluteArcSize=1;arcSize=14;strokeWidth=2;" vertex="1" parent="WlTlBZQSWbdqTwPQ83UT-76">
          <mxGeometry x="40" y="760" width="120" height="50" as="geometry" />
        </mxCell>
        <mxCell id="WlTlBZQSWbdqTwPQ83UT-83" style="edgeStyle=orthogonalEdgeStyle;rounded=0;orthogonalLoop=1;jettySize=auto;html=1;exitX=1;exitY=0.5;exitDx=0;exitDy=0;entryX=0;entryY=0.5;entryDx=0;entryDy=0;" edge="1" parent="1" source="WlTlBZQSWbdqTwPQ83UT-59" target="WlTlBZQSWbdqTwPQ83UT-66">
          <mxGeometry relative="1" as="geometry" />
        </mxCell>
        <mxCell id="WlTlBZQSWbdqTwPQ83UT-84" style="edgeStyle=orthogonalEdgeStyle;rounded=0;orthogonalLoop=1;jettySize=auto;html=1;exitX=0.5;exitY=1;exitDx=0;exitDy=0;entryX=0;entryY=0.5;entryDx=0;entryDy=0;fontSize=8;" edge="1" parent="1" source="WlTlBZQSWbdqTwPQ83UT-71" target="WlTlBZQSWbdqTwPQ83UT-79">
          <mxGeometry relative="1" as="geometry" />
        </mxCell>
        <mxCell id="WlTlBZQSWbdqTwPQ83UT-85" style="edgeStyle=orthogonalEdgeStyle;rounded=0;orthogonalLoop=1;jettySize=auto;html=1;exitX=0;exitY=0.5;exitDx=0;exitDy=0;entryX=1;entryY=0.5;entryDx=0;entryDy=0;fontSize=8;" edge="1" parent="1" source="WlTlBZQSWbdqTwPQ83UT-82" target="WlTlBZQSWbdqTwPQ83UT-74">
          <mxGeometry relative="1" as="geometry" />
        </mxCell>
        <mxCell id="WlTlBZQSWbdqTwPQ83UT-86" style="edgeStyle=orthogonalEdgeStyle;rounded=0;orthogonalLoop=1;jettySize=auto;html=1;exitX=0;exitY=0.5;exitDx=0;exitDy=0;entryX=1;entryY=0.5;entryDx=0;entryDy=0;fontSize=9;" edge="1" parent="1" source="WlTlBZQSWbdqTwPQ83UT-75" target="WlTlBZQSWbdqTwPQ83UT-61">
          <mxGeometry relative="1" as="geometry" />
        </mxCell>
      </root>
    </mxGraphModel>
  </diagram>
</mxfile>
